<svg xmlns="http://www.w3.org/2000/svg" viewBox="0 0 1200 675">
  <defs>
    <pattern id="halftone2" width="10" height="10" patternUnits="userSpaceOnUse">
      <circle cx="2.5" cy="2.5" r="1.2" fill="#1f1f1f" opacity="0.24"/>
      <circle cx="7.5" cy="7.5" r="1.2" fill="#1f1f1f" opacity="0.24"/>
    </pattern>
  </defs>
  <rect width="1200" height="675" fill="#ece7d8"/>
  <rect width="1200" height="675" fill="url(#halftone2)"/>
  <rect x="35" y="35" width="1130" height="605" fill="none" stroke="#111" stroke-width="10"/>

  <path d="M120 540 C220 410 330 400 430 470 C520 530 620 520 720 450 C820 380 930 390 1040 470" fill="none" stroke="#111" stroke-width="14"/>
  <rect x="160" y="180" width="880" height="300" fill="#f6f2e6" stroke="#111" stroke-width="8"/>
  <path d="M190 230 Q600 90 1010 230" fill="none" stroke="#111" stroke-width="7"/>
  <path d="M190 270 Q600 130 1010 270" fill="none" stroke="#111" stroke-width="5"/>
  <circle cx="320" cy="360" r="55" fill="#fff" stroke="#111" stroke-width="8"/>
  <circle cx="600" cy="360" r="55" fill="#fff" stroke="#111" stroke-width="8"/>
  <circle cx="880" cy="360" r="55" fill="#fff" stroke="#111" stroke-width="8"/>

  <rect x="430" y="520" width="340" height="90" fill="#111"/>
  <text x="600" y="578" text-anchor="middle" font-family="Georgia, serif" font-size="44" fill="#efe7d2">
    OPERA OF STEEL
  </text>
</svg>
