<svg xmlns="http://www.w3.org/2000/svg" width="1600" height="1000" viewBox="0 0 1600 1000"><rect width="1600" height="1000" fill="#f6f6f6"/><g stroke="#111" stroke-width="6" fill="none"><rect x="180" y="140" width="1240" height="720"/><path d="M220 220 C480 300 720 120 980 260 C1140 340 1280 260 1380 320"/><path d="M220 320 C460 420 720 240 980 360 C1180 460 1260 380 1380 440"/><path d="M220 420 C460 520 720 340 980 460 C1180 560 1260 480 1380 540"/><path d="M220 520 C460 620 720 440 980 560 C1180 660 1260 580 1380 640"/></g><rect x="1080" y="150" width="320" height="110" fill="#fff" stroke="#111" stroke-width="5"/><text x="1100" y="220" font-family="Arial" font-size="42" fill="#111">07 • LAB</text></svg>
