<svg xmlns="http://www.w3.org/2000/svg" width="1600" height="1000" viewBox="0 0 1600 1000"><rect width="1600" height="1000" fill="#f8f8f8"/><g stroke="#111" stroke-width="6" fill="none"><path d="M130 820 L290 550 L430 690 L600 480 L790 680 L980 420 L1150 610 L1330 430 L1480 570"/><path d="M190 120 L190 860"/><path d="M360 90 L360 820"/><path d="M530 110 L530 840"/><path d="M700 90 L700 860"/><path d="M870 120 L870 820"/><path d="M1040 100 L1040 860"/><path d="M1210 110 L1210 820"/><path d="M1380 130 L1380 830"/></g><rect x="120" y="120" width="520" height="180" fill="#fff" stroke="#111" stroke-width="5"/><text x="150" y="190" font-family="Arial" font-size="52" fill="#111">01 • NIGHT ALLEY</text></svg>
