<svg xmlns="http://www.w3.org/2000/svg" width="1600" height="900" viewBox="0 0 1600 900">
  <defs>
    <pattern id="diag_lab" width="14" height="14" patternUnits="userSpaceOnUse" patternTransform="rotate(-22)">
      <line x1="0" y1="0" x2="0" y2="14" stroke="#111" stroke-width="1" opacity="0.16"/>
    </pattern>
  </defs>
  <rect width="1600" height="900" fill="#efefef"/>
  <rect width="1600" height="900" fill="url(#diag_lab)"/>
  <rect x="100" y="140" width="1400" height="620" fill="#f9f9f9" stroke="#111" stroke-width="7"/>
  <g stroke="#111" stroke-width="5" fill="none">
    <path d="M160 660 H1440"/>
    <path d="M220 620 H1380"/>
    <path d="M280 580 H1320"/>
    <path d="M340 540 H1260"/>
  </g>
  <g stroke="#111" stroke-width="7" fill="#fff">
    <rect x="290" y="240" width="280" height="220"/>
    <rect x="660" y="210" width="320" height="250"/>
    <rect x="1060" y="240" width="250" height="220"/>
  </g>
  <g stroke="#111" stroke-width="9" fill="none" stroke-linecap="round">
    <path d="M770 520 Q820 420 870 520"/>
    <path d="M760 570 Q820 620 880 570"/>
  </g>
  <circle cx="820" cy="400" r="52" fill="#fff" stroke="#111" stroke-width="8"/>
  <path d="M748 502 L892 502" stroke="#111" stroke-width="8"/>
  <text x="120" y="110" font-family="Impact, Arial Black, sans-serif" font-size="84" fill="#111">BLACK VOLT LAB</text>
</svg>
