<svg xmlns="http://www.w3.org/2000/svg" width="1600" height="900" viewBox="0 0 1600 900">
  <defs>
    <pattern id="dots_team" width="10" height="10" patternUnits="userSpaceOnUse">
      <circle cx="2" cy="2" r="1.2" fill="#111" opacity="0.18" />
    </pattern>
  </defs>
  <rect width="1600" height="900" fill="#f7f7f7" />
  <rect width="1600" height="900" fill="url(#dots_team)" />
  <g stroke="#111" stroke-width="5" fill="#fefefe">
    <rect x="80" y="510" width="220" height="280" />
    <rect x="340" y="470" width="240" height="320" />
    <rect x="620" y="430" width="260" height="360" />
    <rect x="930" y="470" width="240" height="320" />
    <rect x="1210" y="510" width="220" height="280" />
  </g>
  <g stroke="#111" fill="none" stroke-width="8" stroke-linecap="round">
    <path d="M165 510 Q190 430 250 420" />
    <path d="M470 470 Q500 380 580 360" />
    <path d="M760 430 Q790 300 870 280" />
    <path d="M1020 470 Q1050 370 1130 350" />
    <path d="M1280 510 Q1310 420 1380 410" />
  </g>
  <g stroke="#111" stroke-width="7" fill="#fff">
    <circle cx="190" cy="520" r="38" />
    <circle cx="470" cy="480" r="44" />
    <circle cx="760" cy="440" r="50" />
    <circle cx="1040" cy="480" r="44" />
    <circle cx="1290" cy="520" r="38" />
  </g>
  <text x="90" y="170" font-family="Impact, Arial Black, sans-serif" font-size="104" fill="#111">THE LEAGUE</text>
  <text x="96" y="224" font-family="Courier New, monospace" font-size="40" fill="#111">ASSEMBLE BEFORE MIDNIGHT</text>
  <path d="M82 250 L1518 250" stroke="#111" stroke-width="6" />
</svg>
