<svg xmlns="http://www.w3.org/2000/svg" viewBox="0 0 1200 675">
  <defs>
    <pattern id="dotsD" width="11" height="11" patternUnits="userSpaceOnUse">
      <circle cx="3" cy="3" r="1.1" fill="#202020" opacity="0.3"/>
      <circle cx="8" cy="8" r="1.1" fill="#202020" opacity="0.3"/>
    </pattern>
    <linearGradient id="paperD" x1="0" y1="0" x2="0" y2="1">
      <stop offset="0%" stop-color="#f1ead8"/>
      <stop offset="100%" stop-color="#cfc6af"/>
    </linearGradient>
  </defs>

  <rect width="1200" height="675" fill="url(#paperD)"/>
  <rect width="1200" height="675" fill="url(#dotsD)"/>
  <rect x="32" y="32" width="1136" height="611" fill="none" stroke="#131313" stroke-width="10"/>

  <rect x="86" y="82" width="1028" height="96" fill="#111"/>
  <text x="600" y="145" text-anchor="middle" font-family="Times New Roman, serif" font-size="62" fill="#f2ecda" letter-spacing="3">
    INK SERIAL
  </text>

  <rect x="110" y="220" width="490" height="340" fill="#ece4cf" stroke="#111" stroke-width="8"/>
  <rect x="640" y="220" width="450" height="340" fill="#e4dbc4" stroke="#111" stroke-width="8"/>

  <path d="M160 490 L250 300 L340 440 L430 280 L520 500" fill="none" stroke="#111" stroke-width="14"/>
  <rect x="700" y="270" width="320" height="220" fill="#f6f0e1" stroke="#111" stroke-width="6"/>
  <text x="860" y="332" text-anchor="middle" font-family="Georgia, serif" font-size="34" fill="#111">
    CASE FILE
  </text>
  <text x="860" y="370" text-anchor="middle" font-family="Georgia, serif" font-size="30" fill="#111">
    # 039
  </text>
  <text x="860" y="414" text-anchor="middle" font-family="Georgia, serif" font-size="22" fill="#222">
    the vanishing witness
  </text>

  <rect x="160" y="580" width="880" height="36" fill="#111"/>
  <text x="600" y="605" text-anchor="middle" font-family="Georgia, serif" font-size="18" fill="#efe8d6">
    retro newspaper print style • halftone • monochrome
  </text>
</svg>
