<svg xmlns="http://www.w3.org/2000/svg" viewBox="0 0 1200 675">
  <defs>
    <pattern id="dotsB" width="10" height="10" patternUnits="userSpaceOnUse">
      <circle cx="2.5" cy="2.5" r="1.2" fill="#141414" opacity="0.28"/>
      <circle cx="7.5" cy="7.5" r="1.2" fill="#141414" opacity="0.28"/>
    </pattern>
    <linearGradient id="paperB" x1="0" y1="0" x2="0" y2="1">
      <stop offset="0%" stop-color="#efe8d6"/>
      <stop offset="100%" stop-color="#cec5ae"/>
    </linearGradient>
  </defs>

  <rect width="1200" height="675" fill="url(#paperB)"/>
  <rect width="1200" height="675" fill="url(#dotsB)"/>
  <rect x="26" y="26" width="1148" height="623" fill="none" stroke="#121212" stroke-width="10"/>

  <rect x="70" y="70" width="1060" height="120" fill="#161616"/>
  <text x="600" y="146" text-anchor="middle" font-family="Times New Roman, serif" font-size="72" fill="#efe8d6" letter-spacing="3">
    MIDNIGHT TALES
  </text>

  <rect x="120" y="230" width="960" height="330" fill="#e4dcc7" stroke="#121212" stroke-width="8"/>
  <path d="M160 520 C260 410 340 370 460 390 C580 410 660 360 760 300 C860 240 930 260 1020 330" fill="none" stroke="#0f0f0f" stroke-width="18"/>
  <path d="M220 500 Q300 330 420 500" fill="none" stroke="#0f0f0f" stroke-width="16"/>
  <path d="M430 500 Q510 300 620 500" fill="none" stroke="#0f0f0f" stroke-width="16"/>
  <path d="M660 500 Q760 340 900 500" fill="none" stroke="#0f0f0f" stroke-width="16"/>

  <rect x="300" y="285" width="600" height="90" fill="#f5efdf" stroke="#111" stroke-width="6"/>
  <text x="600" y="340" text-anchor="middle" font-family="Times New Roman, serif" font-size="42" fill="#111">
    THE LAST BELL AT CLOCKTOWER
  </text>

  <rect x="300" y="392" width="600" height="64" fill="#111"/>
  <text x="600" y="435" text-anchor="middle" font-family="Georgia, serif" font-size="28" fill="#efe8d6">
    "NO ONE ESCAPES THE INK"
  </text>
</svg>
